<?xml version="1.0" encoding="UTF-8"?>
<svg width="30px" height="30px" viewBox="0 0 30 30" version="1.1" xmlns="http://www.w3.org/2000/svg" xmlns:xlink="http://www.w3.org/1999/xlink">
    <!-- Generator: sketchtool 51.2 (57519) - http://www.bohemiancoding.com/sketch -->
    <title>C3C260D1-216E-4070-9105-2EA28B3BE7AD</title>
    <desc>Created with sketchtool.</desc>
    <defs>
        <path d="M18.5119621,12.1841611 C18.6348023,11.7921914 18.8555601,11.4313972 19.1621965,11.1301407 C19.3869305,10.9092166 19.5360839,10.633075 19.593369,10.3314235 C19.6547818,10.00846 19.6858508,9.71256708 19.6858508,9.45197895 C19.6858508,8.73296666 19.9767388,6.86746345 20.0713402,6.28009069 C20.064814,6.27508559 20.0583994,6.26975758 20.0520964,6.26421429 C19.9873926,6.20673636 19.9101386,6.0990998 19.9101386,5.91261944 L19.9101386,4.91434407 C19.9101386,4.7890551 20.0154495,4.6875 20.1453033,4.6875 L22.0144053,4.6875 C22.1443149,4.6875 22.2495701,4.7890551 22.2495701,4.91434407 L22.2495701,5.91261944 C22.2495701,6.0990998 22.1723718,6.20673636 22.1075564,6.26421429 C22.1012534,6.26975758 22.0948946,6.27508559 22.08848,6.28009069 C22.1829698,6.86746345 22.4738021,8.73296666 22.4738021,9.45197895 C22.4738021,9.73065002 22.5092776,10.0486085 22.5791688,10.3971895 C22.6375695,10.6886693 22.7766826,10.9524865 22.9813361,11.1602789 C23.2716686,11.4550965 23.4817745,11.8053291 23.6005576,12.1841611 L26.1010783,12.1841611 C26.5421887,12.1841611 26.8997793,12.5417517 26.8997793,12.9828621 L26.8997793,23.559662 C26.8997793,24.9132733 25.7719106,26.0015429 24.3980864,26.0015429 L6.25202759,26.0015429 C4.87794383,26.0015429 3.75,24.9133484 3.75,23.559662 L3.75,12.9828621 C3.75,12.5417517 4.10759063,12.1841611 4.54870102,12.1841611 L7.08062259,12.1841611 C7.20345782,11.7921914 7.42420253,11.4313972 7.7308042,11.1301407 C7.955594,10.9092166 8.10469155,10.633075 8.16203247,10.3314235 C8.22338949,10.00846 8.25451423,9.71256708 8.25451423,9.45197895 C8.25451423,8.73296666 8.54540227,6.86746345 8.63994785,6.28009069 C8.6334217,6.27508559 8.62706288,6.26975758 8.62075984,6.26421429 C8.5560003,6.20673636 8.47880202,6.0990998 8.47880202,5.91261944 L8.47880202,4.91434407 C8.47880202,4.7890551 8.58411297,4.6875 8.71391095,4.6875 L10.5830688,4.6875 C10.7129783,4.6875 10.8181777,4.7890551 10.8181777,4.91434407 L10.8181777,5.91261944 C10.8181777,6.0990998 10.7410352,6.20673636 10.6762199,6.26421429 C10.6699169,6.26975758 10.663558,6.27508559 10.6570877,6.28009069 C10.7516333,6.86746345 11.0424655,8.73296666 11.0424655,9.45197895 C11.0424655,9.73065002 11.077941,10.0486085 11.1478322,10.3971895 C11.206233,10.6886693 11.3453461,10.9524865 11.5499438,11.1602789 C11.8403105,11.4550965 12.0504086,11.8053291 12.1691806,12.1841611 L12.7561466,12.1841611 C12.8789819,11.7921914 13.0997266,11.4313972 13.4063283,11.1301407 C13.6311181,10.9092166 13.7802156,10.633075 13.8375565,10.3314235 C13.8989135,10.00846 13.9300383,9.71256708 13.9300383,9.45197895 C13.9300383,8.73296666 14.2209263,6.86746345 14.3154719,6.28009069 C14.3089457,6.27508559 14.3025869,6.26975758 14.2962839,6.26421429 C14.2315243,6.20673636 14.1543261,6.0990998 14.1543261,5.91261944 L14.1543261,4.91434407 C14.1543261,4.7890551 14.259637,4.6875 14.389435,4.6875 L16.2585928,4.6875 C16.3885024,4.6875 16.4937018,4.7890551 16.4937018,4.91434407 L16.4937018,5.91261944 C16.4937018,6.0990998 16.4165593,6.20673636 16.351744,6.26421429 C16.3454409,6.26975758 16.3390821,6.27508559 16.3326117,6.28009069 C16.4271573,6.86746345 16.7179896,8.73296666 16.7179896,9.45197895 C16.7179896,9.73065002 16.7534651,10.0486085 16.8233563,10.3971895 C16.881757,10.6886693 17.0208701,10.9524865 17.2254679,11.1602789 C17.5158346,11.4550965 17.7259327,11.8053291 17.8447046,12.1841611 L18.5119621,12.1841611 Z M20.2225813,16.8236207 L20.2225813,18.5897855 C20.2225813,21.2201203 18.01926,23.3459874 15.3248395,23.3459874 C12.6305026,23.3459874 10.4271534,21.2200933 10.4271534,18.5897855 L10.4271534,16.8236574 C10.2951551,16.9200992 10.132454,16.9770238 9.95645747,16.9770238 C9.51534708,16.9770238 9.15775645,16.6194331 9.15775645,16.1783227 C9.15775645,15.0164952 10.1235011,14.0846461 11.2985028,14.0846461 C12.4735888,14.0846461 13.4393606,15.0164679 13.4393606,16.1783227 C13.4393606,16.6194331 13.08177,16.9770238 12.6406596,16.9770238 C12.4646432,16.9770238 12.3019253,16.9200863 12.169919,16.8236248 L12.169919,18.5897855 C12.169919,20.2433594 13.5793268,21.6032218 15.3248395,21.6032218 C17.0704357,21.6032218 18.4798156,20.2433863 18.4798156,18.5897855 L18.4798156,16.8236615 C18.3478184,16.9201008 18.1851193,16.9770238 18.0091253,16.9770238 C17.5680149,16.9770238 17.2104242,16.6194331 17.2104242,16.1783227 C17.2104242,15.0164952 18.1761689,14.0846461 19.3511706,14.0846461 C20.5262152,14.0846461 21.4920284,15.0164811 21.4920284,16.1783227 C21.4920284,16.6194331 21.1344378,16.9770238 20.6933274,16.9770238 C20.5173085,16.9770238 20.3545885,16.9200847 20.2225813,16.8236207 Z M5.34740204,13.7815631 L5.34740204,23.559662 C5.34740204,24.01805 5.74759592,24.4041408 6.25202759,24.4041408 L24.3980864,24.4041408 C24.9022119,24.4041408 25.3023773,24.0180252 25.3023773,23.559662 L25.3023773,13.7815631 L5.34740204,13.7815631 Z" id="path-1"></path>
    </defs>
    <g id="Design-System" stroke="none" stroke-width="1" fill="none" fill-rule="evenodd">
        <g id="03-Icons" transform="translate(-130.000000, -225.000000)">
            <g id="01-Icon/032Cart" transform="translate(130.000000, 225.000000)">
                <mask id="mask-2" fill="white">
                    <use xlink:href="#path-1"></use>
                </mask>
                <use id="Mask" fill="#000000" fill-rule="nonzero" xlink:href="#path-1"></use>
                <g id="00-Tint/10Black" mask="url(#mask-2)" fill="#262424" fill-rule="evenodd">
                    <rect id="Rectangle-4-Copy-2" x="0" y="0" width="30" height="30"></rect>
                    <rect id="Rectangle-4-Copy-2" x="0" y="0" width="30" height="30"></rect>
                </g>
            </g>
        </g>
    </g>
</svg>